<svg width="342" height="342" viewBox="0 0 342 342" fill="none" xmlns="http://www.w3.org/2000/svg">
<path d="M175.056 167.813H173.556C173.556 168.642 174.227 169.313 175.056 169.313V167.813ZM164.5 178.498H163C163 179.327 163.672 179.998 164.5 179.998V178.498ZM241.173 266.206L242.236 265.148L242.234 265.146L241.173 266.206ZM226.383 254.002L225.544 252.759L225.544 252.759L226.383 254.002ZM235.194 323.015L236.662 322.711L236.662 322.711L235.194 323.015ZM268.153 316.053L266.684 316.357L266.684 316.357L268.153 316.053ZM241.177 266.21L240.114 267.268L240.116 267.271L241.177 266.21ZM105.601 7.09172H107.101V5.59172H105.601V7.09172ZM71.9384 7.09172V5.59172H70.4384V7.09172H71.9384ZM100.974 77.1913L99.9128 78.2519L99.9129 78.252L100.974 77.1913ZM115.767 89.3953L114.928 90.6387L115.767 91.205L116.606 90.6386L115.767 89.3953ZM241.173 101.599L242.234 100.539L242.234 100.539L241.173 101.599ZM226.383 89.3955L227.223 88.1524L226.383 87.5856L225.544 88.1522L226.383 89.3955ZM115.771 254.003L116.61 255.246L116.611 255.246L115.771 254.003ZM100.978 266.207L99.9174 265.146L99.917 265.146L100.978 266.207ZM71.9425 336.306H70.4425V337.806H71.9425V336.306ZM105.605 336.306V337.806H107.105V336.306H105.605ZM251.654 7.09172L252.717 8.14984L255.263 5.59172H251.654V7.09172ZM235.19 20.3861L233.721 20.0815L233.721 20.0821L235.19 20.3861ZM115.767 89.3988L116.606 90.6422L116.607 90.642L115.767 89.3988ZM100.974 101.603L99.9133 100.542L99.9129 100.542L100.974 101.603ZM100.974 241.802L99.9128 242.863L99.9129 242.863L100.974 241.802ZM115.767 254.006L114.928 255.249L115.767 255.816L116.606 255.249L115.767 254.006ZM226.379 89.3988L225.54 88.1555L225.54 88.1555L226.379 89.3988ZM241.169 77.1948L242.23 78.2555V78.2555L241.169 77.1948ZM268.146 27.3513L266.677 27.0478L266.677 27.048L268.146 27.3513ZM251.65 7.09522L250.587 6.0371L248.041 8.59522H251.65V7.09522ZM267.212 31.4338L265.757 31.0683L267.212 31.4338ZM236.714 327.291L238.045 326.598V326.598L236.714 327.291ZM106.173 327.661L104.686 327.464L106.173 327.661ZM164.5 144.841H166C166 142.7 167.707 140.998 169.778 140.998V139.498V137.998C166.016 137.998 163 141.078 163 144.841H164.5ZM169.778 139.498V140.998C171.848 140.998 173.556 142.7 173.556 144.841H175.056H176.556C176.556 141.078 173.539 137.998 169.778 137.998V139.498ZM175.056 144.841H173.556V167.813H175.056H176.556V144.841H175.056ZM175.056 167.813V169.313H197.222V167.813V166.313H175.056V167.813ZM197.222 167.813V169.313C199.293 169.313 201 171.015 201 173.156H202.5H204C204 169.393 200.984 166.313 197.222 166.313V167.813ZM202.5 173.156H201C201 175.296 199.293 176.998 197.222 176.998V178.498V179.998C200.984 179.998 204 176.919 204 173.156H202.5ZM241.173 266.206L242.234 265.146C237.584 260.496 232.554 256.36 227.223 252.759L226.383 254.002L225.544 255.246C230.717 258.739 235.599 262.753 240.113 267.267L241.173 266.206ZM226.383 254.002L225.544 252.759C209.577 263.537 190.777 269.334 171.077 269.334V270.834V272.334C191.373 272.334 210.757 266.359 227.222 255.246L226.383 254.002ZM171.077 270.834V272.334C201.898 272.334 227.708 294.249 233.725 323.319L235.194 323.015L236.662 322.711C230.363 292.278 203.352 269.334 171.077 269.334V270.834ZM251.658 336.31V337.81C263.282 337.81 271.974 327.133 269.622 315.75L268.153 316.053L266.684 316.357C268.652 325.88 261.38 334.81 251.658 334.81V336.31ZM241.177 266.21L242.24 265.152L242.236 265.148L241.173 266.206L240.11 267.265L240.114 267.268L241.177 266.21ZM105.601 7.09172V5.59172H71.9384V7.09172V8.59172H105.601V7.09172ZM100.974 77.1913L99.9129 78.252C104.563 82.9018 109.593 87.0379 114.928 90.6387L115.767 89.3953L116.606 88.152C111.429 84.6582 106.548 80.6443 102.034 76.1307L100.974 77.1913ZM115.767 89.3953L116.606 90.6386C132.574 79.8607 151.374 74.0641 171.073 74.0641V72.5641V71.0641C150.778 71.0641 131.393 77.0383 114.928 88.1521L115.767 89.3953ZM241.173 101.599L242.234 100.539C237.584 95.889 232.554 91.753 227.223 88.1524L226.383 89.3955L225.544 90.6385C230.717 94.1325 235.599 98.1464 240.113 102.66L241.173 101.599ZM226.383 89.3955L225.544 88.1522C209.577 98.9301 190.777 104.727 171.077 104.727V106.227V107.727C191.373 107.727 210.757 101.753 227.222 90.6387L226.383 89.3955ZM171.077 106.227V107.727C206.351 107.727 235.05 136.426 235.05 171.699H236.55H238.05C238.05 134.769 208.007 104.727 171.077 104.727V106.227ZM236.55 171.699H235.05C235.05 206.972 206.351 235.672 171.077 235.672V237.172V238.672C208.007 238.672 238.05 208.629 238.05 171.699H236.55ZM171.077 237.172V235.672C150.782 235.672 131.394 241.646 114.932 252.759L115.771 254.003L116.611 255.246C132.574 244.468 151.378 238.672 171.077 238.672V237.172ZM115.771 254.003L114.932 252.759C109.596 256.36 104.57 260.496 99.9174 265.146L100.978 266.207L102.038 267.268C106.556 262.754 111.434 258.74 116.61 255.246L115.771 254.003ZM71.9425 336.306V337.806H105.605V336.306V334.806H71.9425V336.306ZM226.383 254.002L227.222 255.246C232.558 251.645 237.584 247.509 242.234 242.859L241.173 241.799L240.113 240.738C235.599 245.252 230.721 249.265 225.544 252.759L226.383 254.002ZM241.173 241.799L242.234 242.859C261.241 223.853 271.709 198.577 271.709 171.699H270.209H268.709C268.709 197.782 258.557 222.294 240.113 240.738L241.173 241.799ZM270.209 171.699H271.709C271.709 144.821 261.237 119.545 242.234 100.539L241.173 101.599L240.113 102.66C258.553 121.104 268.709 145.617 268.709 171.699H270.209ZM235.19 20.3861L233.721 20.0821C227.704 49.1524 201.895 71.0676 171.073 71.0676V72.5676V74.0676C203.348 74.0676 230.36 51.1231 236.658 20.6901L235.19 20.3861ZM171.073 72.5676V71.0676C150.778 71.0676 131.389 77.0417 114.928 88.1556L115.767 89.3988L116.607 90.642C132.57 79.8642 151.374 74.0676 171.073 74.0676V72.5676ZM115.767 89.3988L114.928 88.1555C109.592 91.7564 104.566 95.8925 99.9133 100.542L100.974 101.603L102.034 102.664C106.552 98.1497 111.43 94.1357 116.606 90.6422L115.767 89.3988ZM100.974 101.603L99.9129 100.542C80.9062 119.549 70.4384 144.824 70.4384 171.702H71.9384H73.4384C73.4384 145.62 83.5902 121.108 102.034 102.663L100.974 101.603ZM71.9384 171.702H70.4384C70.4384 198.581 80.9098 223.856 99.9128 242.863L100.974 241.802L102.034 240.741C83.5936 222.297 73.4384 197.785 73.4384 171.702H71.9384ZM100.974 241.802L99.9129 242.863C104.563 247.512 109.593 251.649 114.928 255.249L115.767 254.006L116.606 252.763C111.429 249.269 106.548 245.255 102.034 240.741L100.974 241.802ZM115.767 254.006L116.606 255.249C132.574 244.471 151.374 238.675 171.073 238.675V237.175V235.675C150.778 235.675 131.393 241.649 114.928 252.763L115.767 254.006ZM171.073 237.175V235.675C135.8 235.675 107.101 206.976 107.101 171.702H105.601H104.101C104.101 208.633 134.143 238.675 171.073 238.675V237.175ZM105.601 171.702H107.101C107.101 136.429 135.8 107.73 171.073 107.73V106.23V104.73C134.143 104.73 104.101 134.772 104.101 171.702H105.601ZM171.073 106.23V107.73C191.369 107.73 210.753 101.756 227.218 90.6421L226.379 89.3988L225.54 88.1555C209.573 98.9335 190.773 104.73 171.073 104.73V106.23ZM226.379 89.3988L227.218 90.6422C232.554 87.0412 237.58 82.905 242.23 78.2555L241.169 77.1948L240.109 76.1341C235.595 80.6481 230.717 84.6619 225.54 88.1555L226.379 89.3988ZM268.146 27.3513L269.615 27.6549C271.967 16.2713 263.274 5.59522 251.65 5.59522V7.09522V8.59522C261.373 8.59522 268.645 17.5252 266.677 27.0478L268.146 27.3513ZM251.65 7.09522L252.714 8.15334L252.717 8.14984L251.654 7.09172L250.591 6.0336L250.587 6.0371L251.65 7.09522ZM164.5 178.498H166V144.841H164.5H163V178.498H164.5ZM197.222 178.498V176.998H164.5V178.498V179.998H197.222V178.498ZM71.9384 7.09172H70.4384C70.4384 15.5019 71.4636 23.7568 73.4558 31.7132L74.9109 31.3489L76.3659 30.9845C74.4338 23.2677 73.4384 15.2575 73.4384 7.09172H71.9384ZM74.9109 31.3489L73.4558 31.7132C77.8292 49.1799 86.8596 65.1962 99.9128 78.2519L100.974 77.1913L102.034 76.1308C89.3631 63.4572 80.6067 47.9214 76.3659 30.9845L74.9109 31.3489ZM74.9109 31.3489L74.0595 30.1139C29.3258 60.9523 0 112.551 0 171H1.5H3C3 113.579 31.806 62.8863 75.7622 32.5838L74.9109 31.3489ZM171 1.5V0C147.774 0 125.626 4.63141 105.431 13.0225L106.007 14.4077L106.582 15.7929C126.418 7.5507 148.176 3 171 3V1.5ZM171.073 72.5641V71.0641C138.217 71.0641 111.063 46.1624 107.498 14.2412L106.007 14.4077L104.516 14.5742C108.249 47.9955 136.671 74.0641 171.073 74.0641V72.5641ZM106.007 14.4077L107.498 14.2412C107.235 11.8941 107.101 9.50861 107.101 7.09172H105.601H104.101C104.101 9.62014 104.242 12.1168 104.516 14.5742L106.007 14.4077ZM251.654 7.09172V5.59172C245.2 5.59172 239.359 8.95097 236.085 14.1862L237.357 14.9815L238.629 15.7769C241.363 11.4058 246.249 8.59172 251.654 8.59172V7.09172ZM237.357 14.9815L236.085 14.1862C234.978 15.9571 234.165 17.942 233.721 20.0815L235.19 20.3861L236.658 20.6907C237.029 18.9056 237.706 17.2522 238.629 15.7769L237.357 14.9815ZM237.357 14.9815L237.945 13.6014C217.382 4.84472 194.755 0 171 0V1.5V3C194.344 3 216.572 7.76025 236.77 16.3616L237.357 14.9815ZM340.5 171H342C342 112.605 312.728 61.0478 268.065 30.1995L267.212 31.4338L266.36 32.668C310.247 62.9801 339 113.632 339 171H340.5ZM241.169 77.1948L242.23 78.2555C255.263 65.2225 264.287 49.2334 268.667 31.7993L267.212 31.4338L265.757 31.0683C261.51 47.9735 252.76 63.4828 240.109 76.1341L241.169 77.1948ZM267.212 31.4338L268.667 31.7993C269.012 30.4264 269.328 29.0446 269.615 27.6547L268.146 27.3513L266.677 27.048C266.399 28.3963 266.092 29.7367 265.757 31.0683L267.212 31.4338ZM235.194 323.015L233.725 323.319C234.067 324.975 234.632 326.539 235.384 327.983L236.714 327.291L238.045 326.598C237.419 325.396 236.948 324.093 236.662 322.711L235.194 323.015ZM236.714 327.291L235.384 327.983C238.473 333.919 244.712 337.81 251.658 337.81V336.31V334.81C245.839 334.81 240.622 331.549 238.045 326.598L236.714 327.291ZM171 340.5V342C194.505 342 216.907 337.257 237.296 328.673L236.714 327.291L236.132 325.908C216.105 334.339 194.099 339 171 339V340.5ZM266.911 310.774L267.761 312.01C312.596 281.186 342 229.527 342 171H340.5H339C339 228.498 310.117 279.25 266.061 309.538L266.911 310.774ZM268.153 316.053L269.622 315.75C269.251 313.949 268.83 312.162 268.361 310.39L266.911 310.774L265.461 311.158C265.916 312.876 266.324 314.61 266.684 316.357L268.153 316.053ZM266.911 310.774L268.361 310.39C263.872 293.428 254.967 277.879 242.237 265.149L241.177 266.21L240.116 267.271C252.473 279.627 261.108 294.711 265.461 311.158L266.911 310.774ZM105.605 336.306H107.105C107.105 333.442 107.294 330.622 107.66 327.858L106.173 327.661L104.686 327.464C104.303 330.359 104.105 333.31 104.105 336.306H105.605ZM106.173 327.661L107.66 327.858C111.806 296.563 138.668 272.334 171.077 272.334V270.834V269.334C137.142 269.334 109.027 294.698 104.686 327.464L106.173 327.661ZM106.173 327.661L105.599 329.047C125.748 337.394 147.838 342 171 342V340.5V339C148.239 339 126.539 334.474 106.747 326.276L106.173 327.661ZM1.5 171H0C0 229.584 29.4617 281.287 74.3703 312.1L75.219 310.863L76.0676 309.626C31.9395 279.348 3 228.554 3 171H1.5ZM100.978 266.207L99.917 265.146C87.162 277.901 78.2497 293.482 73.7685 310.481L75.219 310.863L76.6694 311.245C81.0146 294.763 89.6566 279.649 102.038 267.267L100.978 266.207ZM75.219 310.863L73.7685 310.481C71.5736 318.807 70.4425 327.471 70.4425 336.306H71.9425H73.4425C73.4425 327.728 74.5406 319.321 76.6694 311.245L75.219 310.863Z" fill="#9CC013"/>
</svg>
